<svg xmlns="http://www.w3.org/2000/svg" viewBox="0 0 512 512" role="img" aria-label="Carlo Falanga">
  <rect width="512" height="512" rx="112" fill="#3A86FF"/>
  <path d="M373 -18Q272 -18 195.0 28.0Q118 74 75.0 156.5Q32 239 32 349Q32 459 75.0 541.0Q118 623 195.0 669.0Q272 715 373 715Q488 715 571.0 657.5Q654 600 690 499L542 446Q522 502 478.5 533.5Q435 565 373 565Q317 565 275.5 539.0Q234 513 211.5 465.0Q189 417 189 349Q189 281 211.5 232.5Q234 184 275.5 158.0Q317 132 373 132Q435 132 478.5 163.5Q522 195 542 251L690 198Q654 98 571.0 40.0Q488 -18 373 -18Z" transform="translate(61.60,360.55) scale(0.30000,-0.30000)" fill="#FFFFFF"/><path d="M59 0V697H531V557H216V429H490V289H216V0Z" transform="translate(281.50,360.55) scale(0.30000,-0.30000)" fill="#FFFFFF"/>
</svg>
