<svg xmlns="http://www.w3.org/2000/svg" viewBox="-11.53 -14.00 832.17 126" role="img" aria-label="Carlo Falanga">
  <g transform="translate(0,85.80)">
    <path d="M373 -18Q272 -18 195.0 28.0Q118 74 75.0 156.5Q32 239 32 349Q32 459 75.0 541.0Q118 623 195.0 669.0Q272 715 373 715Q488 715 571.0 657.5Q654 600 690 499L542 446Q522 502 478.5 533.5Q435 565 373 565Q317 565 275.5 539.0Q234 513 211.5 465.0Q189 417 189 349Q189 281 211.5 232.5Q234 184 275.5 158.0Q317 132 373 132Q435 132 478.5 163.5Q522 195 542 251L690 198Q654 98 571.0 40.0Q488 -18 373 -18Z" transform="translate(0.00,0) scale(0.12000,-0.12000)" fill="#0D0D0F"/>
    <path d="M364 0 352 58V313Q352 348 327.0 363.0Q302 378 265 378Q226 378 182.0 363.5Q138 349 108 328L44 434Q103 473 158.5 488.5Q214 504 278 504Q383 504 442.5 452.5Q502 401 502 313V0ZM225 -11Q172 -11 128.5 9.5Q85 30 59.5 68.0Q34 106 34 156Q34 199 52.5 231.0Q71 263 102 280Q125 293 154.0 299.0Q183 305 216 305H364V194H238Q226 194 216.5 192.0Q207 190 200 185Q193 180 189.0 172.5Q185 165 185 156Q185 135 202.5 122.5Q220 110 249 110Q277 110 300.5 121.5Q324 133 338.0 153.0Q352 173 352 199L384 114Q365 63 338.5 36.0Q312 9 282.5 -1.0Q253 -11 225 -11Z" transform="translate(89.16,0) scale(0.12000,-0.12000)" fill="#0D0D0F"/>
    <path d="M54 0V493H206V358H188Q189 400 209.5 433.0Q230 466 262.5 485.0Q295 504 330 504Q356 504 379.5 496.5Q403 489 429 472L357 336Q347 343 329.0 348.5Q311 354 293 354Q276 354 260.5 348.0Q245 342 233.5 329.5Q222 317 215 298Q210 284 207.5 262.5Q205 241 205 199V0Z" transform="translate(158.76,0) scale(0.12000,-0.12000)" fill="#0D0D0F"/>
    <path d="M179 -11Q125 -11 88.0 21.5Q51 54 51 125V697H201V155Q201 140 209.5 134.0Q218 128 231 128Q239 128 246.5 129.5Q254 131 262 133V5Q239 -4 217.5 -7.5Q196 -11 179 -11Z" transform="translate(215.04,0) scale(0.12000,-0.12000)" fill="#0D0D0F"/>
    <path d="M285.03246753246754 -11Q212 -11 154.5 22.5Q97 56 64.0 114.43939393939394Q31 172.87878787878788 31 247.43939393939394Q31 322 64.0 380.0Q97 438 154.5 471.0Q212 504 285 504Q358 504 414.9822485207101 471.1161417322835Q471.96449704142015 438.23228346456693 504.9822485207101 380.0531496062992Q538 321.87401574803147 538 247Q538 173 505.1883116883117 114.54696132596685Q472.3766233766234 56.0939226519337 415.22077922077926 22.54696132596685Q358.06493506493507 -11 285.03246753246754 -11ZM285.34736842105264 121Q318 121 341.0 135.5Q364 150 375.5 178.5Q387 207 387 247.12844036697248Q387 288 375.5 315.5Q364 343 341.0 357.5Q318 372 285.34736842105264 372Q252 372 229.0 357.5Q206 343 194.0 315.5Q182 288 182 247.12844036697248Q182 207 194.0 178.5Q206 150 229.0 135.5Q252 121 285.34736842105264 121Z" transform="translate(252.96,0) scale(0.12000,-0.12000)" fill="#0D0D0F"/>
    <path d="M59 0V697H531V557H216V429H490V289H216V0Z" transform="translate(359.64,0) scale(0.12000,-0.12000)" fill="#0D0D0F"/>
    <path d="M364 0 352 58V313Q352 348 327.0 363.0Q302 378 265 378Q226 378 182.0 363.5Q138 349 108 328L44 434Q103 473 158.5 488.5Q214 504 278 504Q383 504 442.5 452.5Q502 401 502 313V0ZM225 -11Q172 -11 128.5 9.5Q85 30 59.5 68.0Q34 106 34 156Q34 199 52.5 231.0Q71 263 102 280Q125 293 154.0 299.0Q183 305 216 305H364V194H238Q226 194 216.5 192.0Q207 190 200 185Q193 180 189.0 172.5Q185 165 185 156Q185 135 202.5 122.5Q220 110 249 110Q277 110 300.5 121.5Q324 133 338.0 153.0Q352 173 352 199L384 114Q365 63 338.5 36.0Q312 9 282.5 -1.0Q253 -11 225 -11Z" transform="translate(429.60,0) scale(0.12000,-0.12000)" fill="#0D0D0F"/>
    <path d="M179 -11Q125 -11 88.0 21.5Q51 54 51 125V697H201V155Q201 140 209.5 134.0Q218 128 231 128Q239 128 246.5 129.5Q254 131 262 133V5Q239 -4 217.5 -7.5Q196 -11 179 -11Z" transform="translate(499.20,0) scale(0.12000,-0.12000)" fill="#0D0D0F"/>
    <path d="M364 0 352 58V313Q352 348 327.0 363.0Q302 378 265 378Q226 378 182.0 363.5Q138 349 108 328L44 434Q103 473 158.5 488.5Q214 504 278 504Q383 504 442.5 452.5Q502 401 502 313V0ZM225 -11Q172 -11 128.5 9.5Q85 30 59.5 68.0Q34 106 34 156Q34 199 52.5 231.0Q71 263 102 280Q125 293 154.0 299.0Q183 305 216 305H364V194H238Q226 194 216.5 192.0Q207 190 200 185Q193 180 189.0 172.5Q185 165 185 156Q185 135 202.5 122.5Q220 110 249 110Q277 110 300.5 121.5Q324 133 338.0 153.0Q352 173 352 199L384 114Q365 63 338.5 36.0Q312 9 282.5 -1.0Q253 -11 225 -11Z" transform="translate(537.12,0) scale(0.12000,-0.12000)" fill="#0D0D0F"/>
    <path d="M54 0V493H205V377H185Q197 427 223.0 454.5Q249 482 281.5 493.0Q314 504 345 504Q431 504 479.0 456.5Q527 409 527 328V0H376V272Q376 325 357.5 349.0Q339 373 298 373Q266 373 245.5 358.0Q225 343 215.0 311.5Q205 280 205 230V0Z" transform="translate(606.72,0) scale(0.12000,-0.12000)" fill="#0D0D0F"/>
    <path d="M268 -215Q155 -215 90.5 -175.5Q26 -136 26 -68Q26 -61 27.0 -52.5Q28 -44 30 -35L179 49L211 5L153 -66Q152 -68 152.0 -69.5Q152 -71 152 -73Q152 -92 182.5 -104.0Q213 -116 268 -116Q312 -116 332.0 -105.5Q352 -95 352 -79Q352 -71 347.5 -66.0Q343 -61 330.5 -57.0Q318 -53 295.0 -49.5Q272 -46 236 -42Q190 -37 145.0 -23.5Q100 -10 70.0 17.5Q40 45 40 91Q40 133 68.5 168.0Q97 203 144 225L207 168Q186 166 172.5 154.0Q159 142 159 126Q159 112 171.5 104.0Q184 96 207.0 92.0Q230 88 261 84Q315 78 359.5 70.0Q404 62 436.0 47.5Q468 33 485.0 7.5Q502 -18 502 -59Q502 -135 442.0 -175.0Q382 -215 268 -215ZM259 127Q194 127 145.5 151.5Q97 176 70.0 218.0Q43 260 43 314Q43 372 72.0 414.5Q101 457 149.5 480.5Q198 504 254 504Q310 504 358.5 480.5Q407 457 437.0 413.0Q467 369 467 309Q467 254 441.0 213.0Q415 172 368.0 149.5Q321 127 259 127ZM256 245Q289 245 303.0 265.5Q317 286 317 314Q317 343 301.0 361.0Q285 379 256 379Q226 379 210.0 361.0Q194 343 194 314Q194 286 208.0 265.5Q222 245 256 245ZM433 381 324 450 445 545 522 452Z" transform="translate(679.44,0) scale(0.12000,-0.12000)" fill="#0D0D0F"/>
    <path d="M364 0 352 58V313Q352 348 327.0 363.0Q302 378 265 378Q226 378 182.0 363.5Q138 349 108 328L44 434Q103 473 158.5 488.5Q214 504 278 504Q383 504 442.5 452.5Q502 401 502 313V0ZM225 -11Q172 -11 128.5 9.5Q85 30 59.5 68.0Q34 106 34 156Q34 199 52.5 231.0Q71 263 102 280Q125 293 154.0 299.0Q183 305 216 305H364V194H238Q226 194 216.5 192.0Q207 190 200 185Q193 180 189.0 172.5Q185 165 185 156Q185 135 202.5 122.5Q220 110 249 110Q277 110 300.5 121.5Q324 133 338.0 153.0Q352 173 352 199L384 114Q365 63 338.5 36.0Q312 9 282.5 -1.0Q253 -11 225 -11Z" transform="translate(746.40,0) scale(0.12000,-0.12000)" fill="#0D0D0F"/>
  </g>
</svg>
